<svg xmlns="http://www.w3.org/2000/svg" viewBox="18.025 32.32500000000001 118.64999999999999 118.64999999999999"><rect x="18.025" y="32.32500000000001" width="118.64999999999999" height="118.64999999999999" rx="26.102999999999998" fill="#1e58f0"/><path d="M57.23 117.81L54.30 117.59L51.63 116.89L49.20 115.69L46.99 113.98L45.11 111.98L43.73 109.81L42.83 107.47L42.45 104.94L42.57 102.75L43.15 100.72L44.22 98.89L45.79 97.25L47.19 96.16L48.65 95.31L50.16 94.78L51.73 94.63L52.16 94.64L52.66 94.70L52.81 94.87L52.42 95.33L51.32 95.63L49.91 96.05L48.53 96.98L47.20 98.42L45.63 101.59L45.20 103.34L45.10 105.22L45.40 107.36L46.13 109.36L47.29 111.22L48.88 112.95L50.75 114.44L52.80 115.50L55.05 116.12L57.50 116.32L60.35 116.16L63.14 115.69L65.85 114.90L68.48 113.76L71.04 112.25L73.51 110.37L75.89 108.17L78.30 105.41L80.66 102.15L82.96 98.46L95.06 77.01L91.50 75.65L88.26 74.43L85.32 73.35L82.74 72.42L80.54 71.66L78.74 71.04L77.33 70.57L76.29 70.23L71.14 68.72L66.22 67.50L61.34 66.66L56.28 66.35L52.74 66.60L49.86 67.27L47.67 68.27L46.16 69.57L45.31 71.15L45.10 73.03L45.49 75.46L46.39 77.76L47.80 79.96L49.72 82.08L50.08 82.42L50.19 82.80L50.11 82.98L49.86 83.03L49.00 82.86L48.34 82.43L46.98 81.42L45.91 80.57L45.12 79.85L44.59 79.24L43.69 77.77L43.12 76.11L42.87 74.23L43.06 72.12L43.84 70.20L45.21 68.46L47.22 66.89L50.30 65.49L53.80 64.62L57.65 64.39L64.25 64.99L70.64 66.24L77.15 67.92L79.67 68.64L82.50 69.49L85.65 70.50L89.07 71.69L92.73 73.07L96.69 74.61L98.30 73.07L99.71 72.10L100.70 71.75L101.89 71.50L103.25 71.37L104.75 71.38L106.80 71.71L108.85 72.52L110.91 73.80L112.57 75.36L113.57 76.88L113.92 78.37L113.72 79.77L113.11 80.83L112.06 81.57L110.59 81.98L108.67 82.06L106.63 81.81L104.46 81.22L101.45 80.11L99.13 79.12L97.49 78.24L95.02 82.85L92.22 88.19L89.22 93.85L85.96 99.67L82.88 103.98L79.25 108.09L75.05 111.76L71.44 114.10L67.85 115.79L64.29 116.93L60.74 117.59L57.23 117.81ZM110.16 79.69L111.25 79.58L111.89 79.12L112.10 78.31L111.85 77.22L111.14 76.08L109.95 74.90L108.30 73.75L106.51 73.02L104.58 72.71L102.87 72.83L101.39 73.39L100.16 74.40L99.18 75.85L101.92 77.10L104.95 78.31L107.16 79.05L108.90 79.50L110.16 79.69Z" fill="#ffffff" stroke="#ffffff" stroke-width="0.92" stroke-linejoin="round"/><path d="M34.21 118.94L40.78 118.93L47.36 118.87L53.93 118.70L60.50 118.49L67.07 118.41L73.64 118.64L80.21 118.79L86.78 118.85L93.35 118.79" fill="none" stroke="#ffffff" stroke-width="2.61" stroke-linecap="round" stroke-linejoin="round"/></svg>